<?xml version="1.0" encoding="UTF-8"?>
<!DOCTYPE svg PUBLIC "-//W3C//DTD SVG 1.1//EN" "http://www.w3.org/Graphics/SVG/1.1/DTD/svg11.dtd">
<!-- Creator: CorelDRAW X6 -->
<svg xmlns="http://www.w3.org/2000/svg" xml:space="preserve" width="35mm" height="35mm" version="1.1" style="shape-rendering:geometricPrecision; text-rendering:geometricPrecision; image-rendering:optimizeQuality; fill-rule:evenodd; clip-rule:evenodd"
viewBox="0 0 3500 3500"
 xmlns:xlink="http://www.w3.org/1999/xlink">
 <defs>
  <style type="text/css">
   <![CDATA[
    .fil0 {fill:#4B2206}
   ]]>
  </style>
 </defs>
 <g id="Vrstva_x0020_1">
  <metadata id="CorelCorpID_0Corel-Layer"/>
  <path class="fil0" d="M2768 1482l-1 7c0,1 1,2 1,2 0,2 -1,3 -1,5l-71 1452 -1 0c-6,114 -137,286 -840,286 -703,0 -834,-172 -840,-286l0 0 -71 -1452c0,-2 -1,-3 -1,-5 0,-1 0,-2 0,-2l0 -7 1 0c3,-12 10,-24 21,-36 91,92 455,107 890,107 435,0 800,-15 890,-107 11,11 19,23 21,36l1 0zm124 -552l0 170c0,35 -35,68 -98,98 -166,78 -523,132 -938,132 -415,0 -772,-54 -938,-132 -63,-30 -98,-63 -98,-98l0 -170c0,-89 230,-166 565,-204l0 -356c0,-57 47,-104 104,-104l696 0c57,0 104,47 104,104l0 352c356,36 603,116 603,208zm-792 -363c0,-62 -8,-113 -19,-113 -10,0 -70,0 -132,0l-226 0c-62,0 -122,0 -132,0 -10,0 -19,51 -19,113l0 142 29 -2c81,-5 166,-7 254,-7 85,0 166,3 245,7l0 -140z"/>
 </g>
</svg>
