<?xml version="1.0" encoding="utf-8"?>
<!-- Generator: Adobe Illustrator 16.0.4, SVG Export Plug-In . SVG Version: 6.00 Build 0)  -->
<!DOCTYPE svg PUBLIC "-//W3C//DTD SVG 1.1//EN" "http://www.w3.org/Graphics/SVG/1.1/DTD/svg11.dtd">
<svg version="1.1" id="Capa_1" xmlns="http://www.w3.org/2000/svg" xmlns:xlink="http://www.w3.org/1999/xlink" x="0px" y="0px"
	 width="512px" height="512px" viewBox="0 0 512 512" enable-background="new 0 0 512 512" xml:space="preserve">
<path d="M447.97,316.751c-0.006-0.353-0.015-0.701-0.021-1.053c-0.017-0.714-0.035-1.427-0.06-2.14C442.875,155.734,256,0,256,0
	S69.123,155.734,64.11,313.561c-0.022,0.715-0.044,1.426-0.06,2.142c-0.007,0.353-0.015,0.7-0.021,1.053
	c-0.018,1.08-0.028,2.162-0.028,3.248c0,1.185,0.014,2.36,0.035,3.539c0.002,0.099,0.003,0.194,0.007,0.293
	C66.082,428.101,151.241,512,256,512c104.758,0,189.916-83.899,191.959-188.168c0.002-0.098,0.004-0.196,0.005-0.293
	c0.021-1.178,0.036-2.357,0.036-3.539C448,318.914,447.988,317.832,447.97,316.751z M383.975,322.37l-0.004,0.203
	c-0.658,33.643-14.266,65.167-38.312,88.773C321.587,434.983,289.743,448,256,448c-6.231,0-12.397-0.447-18.462-1.319
	c69.528-41.423,116.108-117.352,116.108-204.161c0-9.728-0.591-19.317-1.727-28.74c20.136,36.97,31.032,71.4,32.001,101.813
	l0.002,0.072c0.017,0.474,0.026,0.946,0.039,1.422l0.014,0.724C383.99,318.539,384,319.27,384,320
	C384,320.792,383.99,321.581,383.975,322.37z"/>
</svg>
