<?xml version="1.0" encoding="UTF-8"?>
<!DOCTYPE svg PUBLIC "-//W3C//DTD SVG 1.1//EN" "http://www.w3.org/Graphics/SVG/1.1/DTD/svg11.dtd">
<!-- Creator: CorelDRAW X6 -->
<svg xmlns="http://www.w3.org/2000/svg" xml:space="preserve" width="30mm" height="30mm" version="1.1" style="shape-rendering:geometricPrecision; text-rendering:geometricPrecision; image-rendering:optimizeQuality; fill-rule:evenodd; clip-rule:evenodd"
viewBox="0 0 3000 3000"
 xmlns:xlink="http://www.w3.org/1999/xlink">
 <defs>
  <style type="text/css">
   <![CDATA[
    .fil0 {fill:#8C9F23}
   ]]>
  </style>
 </defs>
 <g id="Vrstva_x0020_1">
  <metadata id="CorelCorpID_0Corel-Layer"/>
  <g id="_737515584">
   <path class="fil0" d="M150 1474c33,45 135,111 342,169 76,21 161,40 250,55 219,39 473,59 740,59 273,0 534,-22 757,-62 83,-15 162,-32 233,-53 240,-68 339,-146 353,-189 -142,-204 -430,-369 -730,-470 2,-15 4,-30 4,-45 0,-161 -130,-243 -291,-243l-586 0c-161,0 -291,82 -291,243 0,11 1,22 2,32 -324,103 -639,280 -781,503l-2 1zm1530 -121c0,99 -80,179 -179,179 -99,0 -179,-80 -179,-179 0,-26 6,-51 16,-74 28,-62 90,-105 163,-105 73,0 135,43 163,105 10,23 16,47 16,74zm486 -142c61,-61 173,-46 251,32 78,78 93,191 32,251 -61,61 -173,46 -251,-32 -78,-78 -93,-191 -32,-251zm-1582 32c78,-78 191,-93 251,-32 61,61 46,173 -32,251 -78,78 -191,93 -251,32 -61,-61 -46,-173 32,-251z"/>
   <path class="fil0" d="M1481 1848c-325,0 -624,-30 -865,-82 -199,-43 -358,-99 -457,-165 78,114 201,216 346,301 -3,12 -5,23 -5,35 0,202 444,366 992,366 548,0 992,-164 992,-366 0,-12 -2,-23 -5,-35 161,-94 294,-209 370,-337 -88,79 -260,147 -486,197 -243,54 -550,86 -883,86l1 0z"/>
  </g>
 </g>
</svg>
