<?xml version="1.0" encoding="UTF-8"?>
<!DOCTYPE svg PUBLIC "-//W3C//DTD SVG 1.1//EN" "http://www.w3.org/Graphics/SVG/1.1/DTD/svg11.dtd">
<!-- Creator: CorelDRAW X6 -->
<svg xmlns="http://www.w3.org/2000/svg" xml:space="preserve" width="135.7mm" height="135.7mm" version="1.1" style="shape-rendering:geometricPrecision; text-rendering:geometricPrecision; image-rendering:optimizeQuality; fill-rule:evenodd; clip-rule:evenodd"
viewBox="0 0 13570 13570"
 xmlns:xlink="http://www.w3.org/1999/xlink">
 <defs>
  <style type="text/css">
   <![CDATA[
    .fil0 {fill:#522900}
   ]]>
  </style>
 </defs>
 <g id="Vrstva_x0020_1">
  <metadata id="CorelCorpID_0Corel-Layer"/>
  <path class="fil0" d="M12806 6233l-1334 -1334 0 -3583 -1563 0 0 2020 -2573 -2573c-305,-305 -800,-305 -1105,0l-5469 5469c-224,224 -290,559 -169,851 121,291 406,482 722,482l781 0 1562 5469 6250 0 1563 -5469 781 0c316,0 601,-191 722,-482 121,-292 54,-628 -169,-851zm-6021 5240c-1079,0 -1953,-874 -1953,-1953 0,-1079 874,-1953 1953,-1953 1080,0 1953,874 1953,1953 0,1079 -874,1953 -1953,1953z"/>
 </g>
</svg>
