<?xml version="1.0" encoding="utf-8"?>
<!-- Generator: Adobe Illustrator 16.0.4, SVG Export Plug-In . SVG Version: 6.00 Build 0)  -->
<!DOCTYPE svg PUBLIC "-//W3C//DTD SVG 1.1//EN" "http://www.w3.org/Graphics/SVG/1.1/DTD/svg11.dtd">
<svg version="1.1" id="Capa_1" xmlns="http://www.w3.org/2000/svg" xmlns:xlink="http://www.w3.org/1999/xlink" x="0px" y="0px"
	 width="25.967px" height="32px" viewBox="0 0 25.967 32" enable-background="new 0 0 25.967 32" xml:space="preserve">
<path d="M25.517,3.097C24.386,1.647,19.922,0,13.018,0C6.114,0,1.56,1.387,0.518,3.097c-1.998,3.281,5.79,5.838,3.125,8.258
	c-5.354,4.864-3.659,9.793-2.083,11.355c2.083,2.063,4.093,3.416,9.374,5.161C14.06,28.902,14.06,32,14.06,32
	s4.758-4.636-4.167-8.258c-3.748-1.521,0.937-5.352,7.292-9.291C24.638,9.832,27.079,5.1,25.517,3.097z M13,7.032
	c-6.075,0-11-1.343-11-3c0-1.657,4.925-3,11-3s11,1.343,11,3C24,5.689,19.075,7.032,13,7.032z"/>
</svg>
